<?xml version="1.0" encoding="UTF-8" standalone="no"?>
<svg width="20px" height="20px" viewBox="0 0 20 20" version="1.1" xmlns="http://www.w3.org/2000/svg" xmlns:xlink="http://www.w3.org/1999/xlink">
    <!-- Generator: Sketch 44.1 (41455) - http://www.bohemiancoding.com/sketch -->
    <title>Arrow Right Corner</title>
    <desc>Created with Sketch.</desc>
    <defs></defs>
    <g id="Page-2-Copy" stroke="none" stroke-width="1" fill="none" fill-rule="evenodd">
        <g id="8" stroke="#979797" transform="translate(-12.000000, 0.000000)" fill-rule="nonzero" fill="#2A2630">
            <path d="M14,16.5857864 L14,11 C14,10.4477153 13.5522847,10 13,10 C12.4477153,10 12,10.4477153 12,11 L12,19 C12,19.5522847 12.4477153,20 13,20 L21,20 C21.5522847,20 22,19.5522847 22,19 C22,18.4477153 21.5522847,18 21,18 L15.4142136,18 L31.190055,2.2241586 C31.5818678,1.83234572 31.5856351,1.2008588 31.1923882,0.807611845 C30.8018639,0.417087553 30.1661792,0.419607283 29.7758414,0.809945039 L14,16.5857864 Z" id="Rectangle-348" stroke="none" transform="translate(22.000000, 10.000000) rotate(-180.000000) translate(-22.000000, -10.000000) "></path>
        </g>
    </g>
</svg>